<svg id="圖層_1" data-name="圖層 1" xmlns="http://www.w3.org/2000/svg" viewBox="0 0 1920 50"><defs><style>.cls-1{fill:#7a6a56;}.cls-2{fill:#f18e49;}.cls-2,.cls-3{fill-rule:evenodd;}.cls-3{fill:#fadad4;}.cls-4{fill:#040000;}.cls-5{font-size:28px;fill:#fff;font-family:BrushScriptMT, Brush Script MT;}.cls-6{letter-spacing:0.01em;}.cls-7{letter-spacing:-0.06em;}</style></defs><title>bar</title><rect class="cls-1" x="-0.01" y="0.38" width="1920" height="50"/><path class="cls-2" d="M899.09,37.57H879V44h21V37.57Z"/><path class="cls-3" d="M878.15,27.64c0,3.3,1.81,6.59,1.82,9.89v0h19.12v-.16c.06-7.3,6.18-6.39,8.39-12.49a16.13,16.13,0,0,1,2.77-4.84c.79-1.2-1.22-3.23-3.4-2.66-2,.52-2.68,2.13-3.93,3.73a7.12,7.12,0,0,1-2.5,1.79,11.29,11.29,0,0,1-3.17,1c-2.91.42-5.55.93-6.86,3.47a3,3,0,0,1-1.75-2.7V23a2.95,2.95,0,1,1-5.89,0V17.58l-4.36-9.2a2.51,2.51,0,0,0-3-1.55A2.44,2.44,0,0,0,874,9.93l4.18,12.76Z"/><path class="cls-3" d="M888.64,16.09v8.65a3,3,0,0,0,1.75,2.7c1.31-2.54,4-3.05,6.86-3.47a11.29,11.29,0,0,0,3.17-1V16.09a2.95,2.95,0,1,0-5.89,0V14.3a2.95,2.95,0,1,0-5.89,0v1.79Z"/><path class="cls-3" d="M888.64,23V16.09a2.95,2.95,0,1,0-5.89,0V23a2.95,2.95,0,1,0,5.89,0Z"/><path class="cls-4" d="M910.7,18.1a3.86,3.86,0,0,0-4.05-1.41c-1.84.48-2.75,1.78-3.63,3-.22.32-.45.65-.7,1a4.37,4.37,0,0,1-1.14,1V16.09a3.72,3.72,0,0,0-3.71-3.72,3.65,3.65,0,0,0-2.34.85,3.7,3.7,0,0,0-7.09,0,3.65,3.65,0,0,0-2.34-.85,3.72,3.72,0,0,0-3.45,2.37l-3.17-6.68a3.26,3.26,0,0,0-4-1.94,3.19,3.19,0,0,0-1.88,4l4.14,12.65v4.83a19.8,19.8,0,0,0,.94,5.17,22.56,22.56,0,0,1,.85,4H879a.76.76,0,0,0-.75.76V44a.76.76,0,0,0,.75.76h21a.76.76,0,0,0,.76-.76V37.57a.76.76,0,0,0-.76-.76h-.16c.21-3.28,1.86-4.56,3.76-6a11.91,11.91,0,0,0,4.56-5.6,13.1,13.1,0,0,1,2.21-4c.17-.23.34-.45.48-.66a2.08,2.08,0,0,0-.18-2.4Zm-13.23-4.21a2.2,2.2,0,0,1,2.19,2.2v6.36a10,10,0,0,1-2.52.77c-.63.09-1.25.19-1.85.31V16.09a2.2,2.2,0,0,1,2.18-2.2Zm-8.07.41a2.19,2.19,0,1,1,4.37,0v9.61a7.63,7.63,0,0,0-2.39,1.18,5.89,5.89,0,0,0-1.24,1.3,2.22,2.22,0,0,1-.74-1.65V14.3Zm-5.89,1.79a2.19,2.19,0,1,1,4.37,0V23a2.19,2.19,0,1,1-4.37,0Zm26.1,3.58-.41.56a14.52,14.52,0,0,0-2.43,4.43,10.57,10.57,0,0,1-4.07,4.92c-2,1.57-4.13,3.2-4.35,7.23h-5.41a.76.76,0,0,0,0,1.52h6.33v5H879.78v-5h6.33a.76.76,0,0,0,0-1.52H880.7a23.66,23.66,0,0,0-.91-4.41,18.47,18.47,0,0,1-.88-4.76V22.69a1,1,0,0,0,0-.24L874.69,9.69a1.67,1.67,0,0,1,.94-2.14,1.78,1.78,0,0,1,2.08,1.16l4.29,9V23a3.72,3.72,0,0,0,3.7,3.72,3.68,3.68,0,0,0,2.35-.85,3.71,3.71,0,0,0,1.37,1.93,11.23,11.23,0,0,0-.65,4.08.76.76,0,1,0,1.52,0c0-2.72.64-4.48,2-5.53a10.87,10.87,0,0,1,5.05-1.57c1.74-.25,4.93-1.5,6.18-3.11l.74-1c.82-1.18,1.47-2.1,2.77-2.44a2.31,2.31,0,0,1,2.42.82C909.54,19.08,909.77,19.44,909.61,19.67Z"/><path class="cls-4" d="M889.53,36.81h0a.76.76,0,1,0,.76.76A.76.76,0,0,0,889.53,36.81Z"/><text class="cls-5" transform="translate(923.92 32.07)"><tspan class="cls-6">W</tspan><tspan x="19.89" y="0">ill</tspan><tspan class="cls-7" x="39.13" y="0">’</tspan><tspan x="46.69" y="0">s Chart</tspan></text></svg>